<mxfile host="65bd71144e" scale="10" border="50">
    <diagram id="9p7lwPKsE18QLDSRFQbE" name="Page-1">
        <mxGraphModel dx="466" dy="294" grid="0" gridSize="10" guides="1" tooltips="1" connect="1" arrows="1" fold="1" page="1" pageScale="1" pageWidth="413" pageHeight="291" background="#ffffff" math="0" shadow="0">
            <root>
                <mxCell id="0"/>
                <mxCell id="1" parent="0"/>
                <mxCell id="92" value="" style="rounded=1;whiteSpace=wrap;html=1;labelBackgroundColor=#FFFFFF;strokeColor=#000000;fontSize=10;fontColor=#000000;fillColor=none;" vertex="1" parent="1">
                    <mxGeometry x="9" y="12" width="394" height="270" as="geometry"/>
                </mxCell>
                <mxCell id="69" value="" style="edgeStyle=none;html=1;strokeColor=#000000;fontSize=6;fontColor=#000000;" edge="1" parent="1" source="56" target="66">
                    <mxGeometry relative="1" as="geometry">
                        <mxPoint x="206" y="177" as="targetPoint"/>
                    </mxGeometry>
                </mxCell>
                <mxCell id="56" value="" style="sketch=0;pointerEvents=1;shadow=0;dashed=0;html=1;strokeColor=none;labelPosition=center;verticalLabelPosition=bottom;verticalAlign=top;align=center;fillColor=#515151;shape=mxgraph.mscae.system_center.admin_console" vertex="1" parent="1">
                    <mxGeometry x="63" y="162" width="42" height="29" as="geometry"/>
                </mxCell>
                <mxCell id="59" value="" style="html=1;verticalLabelPosition=bottom;align=center;labelBackgroundColor=#ffffff;verticalAlign=top;strokeWidth=2;strokeColor=#0080F0;shadow=0;dashed=0;shape=mxgraph.ios7.icons.window;fillColor=#FFFFFF;" vertex="1" parent="1">
                    <mxGeometry x="138" y="162" width="30" height="30" as="geometry"/>
                </mxCell>
                <mxCell id="60" value="" style="sketch=0;aspect=fixed;html=1;points=[];align=center;image;fontSize=12;image=img/lib/mscae/Virtual_Datacenter.svg;" vertex="1" parent="1">
                    <mxGeometry x="198" y="48" width="50" height="50" as="geometry"/>
                </mxCell>
                <mxCell id="62" value="" style="rounded=1;whiteSpace=wrap;html=1;strokeColor=#000000;fillColor=#FFFFFF;" vertex="1" parent="1">
                    <mxGeometry x="227" y="161.5" width="123" height="33" as="geometry"/>
                </mxCell>
                <mxCell id="64" value="" style="endArrow=none;html=1;entryX=0.5;entryY=0;entryDx=0;entryDy=0;exitX=0.5;exitY=1;exitDx=0;exitDy=0;strokeColor=#000000;" edge="1" parent="1" source="62" target="62">
                    <mxGeometry width="50" height="50" relative="1" as="geometry">
                        <mxPoint x="267.7499999999999" y="204.49999999999994" as="sourcePoint"/>
                        <mxPoint x="267.7499999999999" y="171.5" as="targetPoint"/>
                    </mxGeometry>
                </mxCell>
                <mxCell id="66" value="&lt;p style=&quot;line-height: 50%;&quot;&gt;&lt;font color=&quot;#000000&quot;&gt;&lt;span style=&quot;font-size: 6px; background-color: rgb(255, 255, 255);&quot;&gt;Client/User&lt;br&gt;account deletion&lt;br&gt;&lt;/span&gt;&lt;/font&gt;&lt;/p&gt;" style="text;html=1;align=center;verticalAlign=middle;resizable=0;points=[];autosize=1;strokeColor=none;fillColor=none;" vertex="1" parent="1">
                    <mxGeometry x="227" y="151" width="62" height="52" as="geometry"/>
                </mxCell>
                <mxCell id="67" value="&lt;p style=&quot;line-height: 50%;&quot;&gt;&lt;font color=&quot;#000000&quot;&gt;&lt;span style=&quot;font-size: 6px; background-color: rgb(255, 255, 255);&quot;&gt;Log Out&amp;nbsp;&lt;br&gt;Admin Session&lt;/span&gt;&lt;/font&gt;&lt;/p&gt;" style="text;html=1;align=center;verticalAlign=middle;resizable=0;points=[];autosize=1;strokeColor=none;fillColor=none;" vertex="1" parent="1">
                    <mxGeometry x="290" y="152" width="58" height="52" as="geometry"/>
                </mxCell>
                <mxCell id="71" value="Admin Login" style="text;html=1;strokeColor=none;fillColor=none;align=center;verticalAlign=middle;whiteSpace=wrap;rounded=0;labelBackgroundColor=#FFFFFF;fontSize=6;fontColor=#000000;" vertex="1" parent="1">
                    <mxGeometry x="65.5" y="187" width="37" height="19" as="geometry"/>
                </mxCell>
                <mxCell id="73" value="Admin Dashboard" style="text;html=1;strokeColor=none;fillColor=none;align=center;verticalAlign=middle;whiteSpace=wrap;rounded=0;labelBackgroundColor=#FFFFFF;fontSize=6;fontColor=#000000;" vertex="1" parent="1">
                    <mxGeometry x="123" y="185" width="60" height="30" as="geometry"/>
                </mxCell>
                <mxCell id="74" value="Admin Operations" style="text;html=1;strokeColor=none;fillColor=none;align=center;verticalAlign=middle;whiteSpace=wrap;rounded=0;labelBackgroundColor=#FFFFFF;fontSize=6;fontColor=#000000;" vertex="1" parent="1">
                    <mxGeometry x="258.5" y="187" width="60" height="30" as="geometry"/>
                </mxCell>
                <mxCell id="75" value="Cloud Database" style="text;html=1;strokeColor=none;fillColor=none;align=center;verticalAlign=middle;whiteSpace=wrap;rounded=0;labelBackgroundColor=#FFFFFF;fontSize=6;fontColor=#000000;" vertex="1" parent="1">
                    <mxGeometry x="193" y="86" width="60" height="30" as="geometry"/>
                </mxCell>
                <mxCell id="77" value="Fetching User Account Details" style="text;html=1;strokeColor=none;fillColor=none;align=center;verticalAlign=middle;whiteSpace=wrap;rounded=0;labelBackgroundColor=#FFFFFF;fontSize=5;fontColor=#000000;rotation=304;" vertex="1" parent="1">
                    <mxGeometry x="141" y="102" width="66" height="28" as="geometry"/>
                </mxCell>
                <mxCell id="82" value="" style="endArrow=none;html=1;dashed=1;dashPattern=1 1;strokeColor=#006EAF;fontSize=6;fontColor=#000000;fillColor=#1ba1e2;endFill=0;entryX=0.023;entryY=0.612;entryDx=0;entryDy=0;entryPerimeter=0;exitX=0.289;exitY=-0.031;exitDx=0;exitDy=0;exitPerimeter=0;startArrow=blockThin;startFill=0;" edge="1" parent="1" source="59" target="60">
                    <mxGeometry width="50" height="50" relative="1" as="geometry">
                        <mxPoint x="155" y="162" as="sourcePoint"/>
                        <mxPoint x="193" y="116" as="targetPoint"/>
                    </mxGeometry>
                </mxCell>
                <mxCell id="84" value="" style="endArrow=blockThin;html=1;dashed=1;dashPattern=1 1;strokeColor=#314354;fontSize=5;fontColor=#000000;endFill=0;fillColor=#647687;" edge="1" parent="1">
                    <mxGeometry width="50" height="50" relative="1" as="geometry">
                        <mxPoint x="281" y="160" as="sourcePoint"/>
                        <mxPoint x="244" y="76" as="targetPoint"/>
                    </mxGeometry>
                </mxCell>
                <mxCell id="85" value="User Account Deleted Successfully" style="text;html=1;strokeColor=none;fillColor=none;align=center;verticalAlign=middle;whiteSpace=wrap;rounded=0;labelBackgroundColor=#FFFFFF;fontSize=5;fontColor=#000000;rotation=66;" vertex="1" parent="1">
                    <mxGeometry x="242" y="105" width="60" height="30" as="geometry"/>
                </mxCell>
                <mxCell id="86" value="" style="edgeStyle=segmentEdgeStyle;endArrow=blockThin;html=1;curved=0;rounded=0;endSize=8;startSize=8;dashed=1;dashPattern=1 1;strokeColor=#000000;fontSize=5;fontColor=#000000;exitX=0.776;exitY=0.827;exitDx=0;exitDy=0;exitPerimeter=0;endFill=0;" edge="1" parent="1" source="67" target="71">
                    <mxGeometry width="50" height="50" relative="1" as="geometry">
                        <mxPoint x="330" y="227" as="sourcePoint"/>
                        <mxPoint x="195" y="222" as="targetPoint"/>
                        <Array as="points">
                            <mxPoint x="335" y="242"/>
                            <mxPoint x="84" y="242"/>
                        </Array>
                    </mxGeometry>
                </mxCell>
                <mxCell id="87" value="Session Logout Successful" style="text;html=1;align=center;verticalAlign=middle;resizable=0;points=[];autosize=1;strokeColor=none;fillColor=none;fontSize=5;fontColor=#000000;" vertex="1" parent="1">
                    <mxGeometry x="162" y="225" width="78" height="18" as="geometry"/>
                </mxCell>
                <mxCell id="88" value="&lt;font style=&quot;font-size: 10px;&quot;&gt;Fig.2 - Admin System Architecture&lt;/font&gt;" style="text;strokeColor=none;fillColor=none;html=1;fontSize=24;fontStyle=1;verticalAlign=middle;align=center;labelBackgroundColor=#FFFFFF;fontColor=#000000;" vertex="1" parent="1">
                    <mxGeometry x="168.5" y="260" width="65" height="5" as="geometry"/>
                </mxCell>
                <mxCell id="89" value="" style="endArrow=none;html=1;dashed=1;dashPattern=1 1;strokeColor=#314354;fontSize=10;fontColor=#000000;exitX=0.385;exitY=-0.046;exitDx=0;exitDy=0;exitPerimeter=0;entryX=0.015;entryY=0.612;entryDx=0;entryDy=0;entryPerimeter=0;startArrow=blockThin;startFill=0;fillColor=#647687;" edge="1" parent="1" source="56" target="60">
                    <mxGeometry width="50" height="50" relative="1" as="geometry">
                        <mxPoint x="82" y="152" as="sourcePoint"/>
                        <mxPoint x="132" y="102" as="targetPoint"/>
                        <Array as="points">
                            <mxPoint x="123" y="114"/>
                        </Array>
                    </mxGeometry>
                </mxCell>
                <mxCell id="91" value="Fetching Admin credentials from Cloud" style="text;html=1;strokeColor=none;fillColor=none;align=center;verticalAlign=middle;whiteSpace=wrap;rounded=0;labelBackgroundColor=#FFFFFF;fontSize=5;fontColor=#000000;rotation=332;" vertex="1" parent="1">
                    <mxGeometry x="105" y="83" width="66" height="30" as="geometry"/>
                </mxCell>
                <mxCell id="93" value="Logged in&amp;nbsp;" style="text;html=1;strokeColor=none;fillColor=none;align=center;verticalAlign=middle;whiteSpace=wrap;rounded=0;labelBackgroundColor=#FFFFFF;fontSize=5;fontColor=#000000;rotation=0;" vertex="1" parent="1">
                    <mxGeometry x="102.5" y="162" width="33" height="16" as="geometry"/>
                </mxCell>
            </root>
        </mxGraphModel>
    </diagram>
</mxfile>